<?xml version="1.0" encoding="UTF-8"?>
<!DOCTYPE svg PUBLIC "-//W3C//DTD SVG 1.0//EN" "http://www.w3.org/TR/2001/REC-SVG-20010904/DTD/svg10.dtd">
<!-- Creator: CorelDRAW 2019 (64 Bit) -->
<svg xmlns="http://www.w3.org/2000/svg" xml:space="preserve" width="50px" height="50px" version="1.0" style="shape-rendering:geometricPrecision; text-rendering:geometricPrecision; image-rendering:optimizeQuality; fill-rule:evenodd; clip-rule:evenodd"
viewBox="0 0 50 50"
 xmlns:xlink="http://www.w3.org/1999/xlink">
 <defs>
  <style type="text/css">
   <![CDATA[
    .fil1 {fill:#FF66A9}
    .fil0 {fill:white}
    .fil2 {fill:white}
   ]]>
  </style>
 </defs>
 <g id="Camada_x0020_1">
  <metadata id="CorelCorpID_0Corel-Layer"/>
  <g id="_1559549021920">
   <path class="fil0" d="M15.84 21.93c1.23,-4.91 4.3,-7.36 9.21,-7.36 7.36,0 8.28,5.52 11.96,6.44 2.46,0.61 4.61,-0.31 6.45,-2.76 -1.23,4.91 -4.3,7.36 -9.21,7.36 -7.36,0 -8.28,-5.52 -11.97,-6.44 -2.45,-0.61 -4.6,0.31 -6.44,2.76zm-9.2 11.05c1.22,-4.91 4.29,-7.37 9.2,-7.37 7.37,0 8.29,5.53 11.97,6.45 2.45,0.61 4.6,-0.31 6.44,-2.76 -1.23,4.9 -4.29,7.36 -9.2,7.36 -7.37,0 -8.29,-5.52 -11.97,-6.44 -2.46,-0.62 -4.6,0.3 -6.44,2.76z"/>
   <g>
    <circle class="fil1" cx="25" cy="25" r="24.5"/>
    <path class="fil2" d="M21.36 16.1l1.43 0.34c0.24,0.05 0.44,0.2 0.44,0.44l0 16.96c0,0.25 -0.2,0.49 -0.44,0.44 -1.39,-0.24 -3.48,-1.86 -6.4,-0.99l-3.15 0.93c-0.23,0.07 -0.83,0.16 -0.83,-0.88l0 -14.26c0,-2.49 4.59,-3.99 8.95,-2.98z"/>
    <path class="fil2" d="M28.21 16.1l-1.43 0.34c-0.23,0.05 -0.44,0.2 -0.44,0.44l0 16.96c0,0.25 0.2,0.49 0.44,0.44 1.39,-0.24 3.49,-1.86 6.41,-0.99l3.14 0.93c0.23,0.07 0.84,0.16 0.84,-0.88l0 -14.26c0,-2.49 -4.59,-3.99 -8.96,-2.98z"/>
   </g>
  </g>
 </g>
</svg>
