<?xml version="1.0" encoding="UTF-8"?>
<!DOCTYPE svg PUBLIC "-//W3C//DTD SVG 1.0//EN" "http://www.w3.org/TR/2001/REC-SVG-20010904/DTD/svg10.dtd">
<!-- Creator: CorelDRAW 2019 (64 Bit) -->
<svg xmlns="http://www.w3.org/2000/svg" xml:space="preserve" width="325px" height="50px" version="1.0" style="shape-rendering:geometricPrecision; text-rendering:geometricPrecision; image-rendering:optimizeQuality; fill-rule:evenodd; clip-rule:evenodd"
viewBox="0 0 325 50"
 xmlns:xlink="http://www.w3.org/1999/xlink">
 <defs>
  <style type="text/css">
   <![CDATA[
    .fil1 {fill:#FF66A9}
    .fil0 {fill:white}
    .fil2 {fill:white}
    .fil3 {fill:black;fill-rule:nonzero}
   ]]>
  </style>
 </defs>
 <g id="Camada_x0020_1">
  <metadata id="CorelCorpID_0Corel-Layer"/>
  <g id="_1559662483888">
   <g>
    <path class="fil0" d="M15.94 21.93c1.23,-4.91 4.3,-7.36 9.2,-7.36 7.37,0 8.29,5.52 11.97,6.44 2.46,0.61 4.6,-0.31 6.45,-2.76 -1.23,4.91 -4.3,7.36 -9.21,7.36 -7.36,0 -8.28,-5.52 -11.97,-6.44 -2.45,-0.61 -4.6,0.31 -6.44,2.76zm-9.21 11.05c1.23,-4.91 4.3,-7.37 9.21,-7.37 7.36,0 8.28,5.53 11.97,6.45 2.45,0.61 4.6,-0.31 6.44,-2.77 -1.23,4.91 -4.3,7.37 -9.21,7.37 -7.36,0 -8.28,-5.52 -11.96,-6.44 -2.46,-0.62 -4.6,0.3 -6.45,2.76z"/>
    <g>
     <circle class="fil1" cx="25.1" cy="25" r="24.5"/>
     <path class="fil2" d="M21.46 16.1l1.43 0.34c0.24,0.05 0.44,0.2 0.44,0.44l0 16.96c0,0.25 -0.2,0.49 -0.44,0.44 -1.39,-0.24 -3.48,-1.86 -6.4,-0.99l-3.15 0.93c-0.23,0.07 -0.83,0.16 -0.83,-0.89l0 -14.25c0,-2.49 4.59,-3.99 8.95,-2.98z"/>
     <path class="fil2" d="M28.31 16.1l-1.43 0.34c-0.23,0.05 -0.44,0.2 -0.44,0.44l0 16.96c0,0.25 0.2,0.49 0.44,0.44 1.39,-0.24 3.48,-1.86 6.41,-0.99l3.14 0.93c0.23,0.07 0.84,0.16 0.84,-0.89l0 -14.25c0,-2.49 -4.6,-3.99 -8.96,-2.98z"/>
    </g>
   </g>
   <path class="fil3" d="M83.94 38.85l-3.87 0 -4.64 -7.77c-0.42,-0.72 -0.83,-1.33 -1.23,-1.84 -0.4,-0.51 -0.81,-0.93 -1.22,-1.24 -0.43,-0.33 -0.87,-0.56 -1.35,-0.71 -0.49,-0.15 -1.03,-0.22 -1.64,-0.22l-2.66 0 0 11.78 -3.24 0 0 -27.69 8.26 0c1.21,0 2.33,0.15 3.35,0.45 1.02,0.31 1.91,0.76 2.66,1.38 0.76,0.62 1.34,1.39 1.77,2.31 0.42,0.92 0.64,1.99 0.64,3.23 0,0.97 -0.15,1.86 -0.44,2.66 -0.29,0.8 -0.7,1.52 -1.23,2.15 -0.54,0.63 -1.18,1.17 -1.93,1.61 -0.76,0.44 -1.6,0.79 -2.55,1.04l0 0.07c0.47,0.21 0.87,0.44 1.22,0.71 0.33,0.27 0.66,0.57 0.96,0.94 0.31,0.35 0.62,0.76 0.93,1.22 0.3,0.46 0.64,0.99 1.01,1.59l5.2 8.33zm-16.61 -24.76l0 10.05 4.4 0c0.81,0 1.56,-0.13 2.25,-0.37 0.69,-0.25 1.28,-0.6 1.78,-1.06 0.51,-0.45 0.9,-1.01 1.18,-1.68 0.29,-0.66 0.42,-1.4 0.42,-2.23 0,-1.48 -0.47,-2.63 -1.43,-3.46 -0.96,-0.83 -2.35,-1.25 -4.16,-1.25l-4.44 0z"/>
   <path id="1" class="fil3" d="M102.41 38.85l-14.67 0 0 -27.69 14.05 0 0 2.93 -10.81 0 0 9.22 10 0 0 2.91 -10 0 0 9.69 11.43 0 0 2.94z"/>
   <path id="2" class="fil3" d="M129.36 38.85l-3.59 0 -2.93 -7.77 -11.75 0 -2.76 7.77 -3.6 0 10.61 -27.69 3.36 0 10.66 27.69zm-7.59 -10.68l-4.34 -11.8c-0.14,-0.39 -0.29,-1.01 -0.42,-1.85l-0.08 0c-0.13,0.78 -0.28,1.4 -0.45,1.85l-4.31 11.8 9.6 0z"/>
   <path id="3" class="fil3" d="M133.43 38.85l0 -27.69 7.65 0c9.75,0 14.63,4.49 14.63,13.5 0,4.27 -1.35,7.7 -4.06,10.3 -2.71,2.59 -6.33,3.89 -10.88,3.89l-7.34 0zm3.25 -24.76l0 21.82 4.13 0c3.63,0 6.45,-0.97 8.47,-2.92 2.03,-1.94 3.03,-4.7 3.03,-8.26 0,-7.09 -3.76,-10.64 -11.31,-10.64l-4.32 0z"/>
   <path id="4" class="fil3" d="M175.83 38.85l-14.67 0 0 -27.69 14.06 0 0 2.93 -10.82 0 0 9.22 10.01 0 0 2.91 -10.01 0 0 9.69 11.43 0 0 2.94z"/>
   <path id="5" class="fil3" d="M201.01 38.85l-3.86 0 -4.64 -7.77c-0.42,-0.72 -0.83,-1.33 -1.23,-1.84 -0.41,-0.51 -0.81,-0.93 -1.23,-1.24 -0.42,-0.33 -0.87,-0.56 -1.35,-0.71 -0.48,-0.15 -1.03,-0.22 -1.64,-0.22l-2.66 0 0 11.78 -3.24 0 0 -27.69 8.26 0c1.21,0 2.33,0.15 3.35,0.45 1.02,0.31 1.91,0.76 2.66,1.38 0.76,0.62 1.35,1.39 1.77,2.31 0.43,0.92 0.64,1.99 0.64,3.23 0,0.97 -0.15,1.86 -0.44,2.66 -0.29,0.8 -0.69,1.52 -1.23,2.15 -0.53,0.63 -1.18,1.17 -1.93,1.61 -0.76,0.44 -1.6,0.79 -2.54,1.04l0 0.07c0.46,0.21 0.87,0.44 1.21,0.71 0.34,0.27 0.66,0.57 0.97,0.94 0.31,0.35 0.62,0.76 0.92,1.22 0.3,0.46 0.64,0.99 1.01,1.59l5.2 8.33zm-16.61 -24.76l0 10.05 4.4 0c0.81,0 1.57,-0.13 2.25,-0.37 0.69,-0.25 1.29,-0.6 1.79,-1.06 0.5,-0.45 0.89,-1.01 1.18,-1.68 0.28,-0.66 0.42,-1.4 0.42,-2.23 0,-1.48 -0.48,-2.63 -1.44,-3.46 -0.95,-0.83 -2.34,-1.25 -4.16,-1.25l-4.44 0z"/>
   <path id="6" class="fil3" d="M203.51 37.72l0 -3.82c0.44,0.39 0.97,0.73 1.58,1.04 0.61,0.31 1.26,0.58 1.93,0.79 0.68,0.21 1.36,0.37 2.04,0.49 0.68,0.11 1.31,0.17 1.89,0.17 1.99,0 3.48,-0.37 4.47,-1.11 0.98,-0.74 1.48,-1.81 1.48,-3.19 0,-0.75 -0.17,-1.4 -0.5,-1.95 -0.33,-0.55 -0.78,-1.06 -1.35,-1.52 -0.58,-0.46 -1.27,-0.89 -2.06,-1.31 -0.8,-0.42 -1.65,-0.86 -2.56,-1.32 -0.97,-0.49 -1.87,-0.99 -2.71,-1.49 -0.83,-0.5 -1.56,-1.06 -2.18,-1.66 -0.62,-0.61 -1.1,-1.29 -1.45,-2.06 -0.36,-0.76 -0.54,-1.66 -0.54,-2.69 0,-1.26 0.28,-2.36 0.83,-3.29 0.56,-0.94 1.29,-1.7 2.18,-2.31 0.91,-0.6 1.93,-1.05 3.09,-1.35 1.15,-0.3 2.32,-0.45 3.52,-0.45 2.73,0 4.72,0.33 5.97,0.99l0 3.65c-1.64,-1.13 -3.74,-1.7 -6.3,-1.7 -0.71,0 -1.41,0.07 -2.12,0.22 -0.71,0.15 -1.34,0.39 -1.9,0.72 -0.55,0.34 -1,0.77 -1.35,1.3 -0.35,0.53 -0.52,1.17 -0.52,1.93 0,0.71 0.13,1.32 0.4,1.83 0.26,0.52 0.65,0.99 1.16,1.41 0.52,0.43 1.15,0.84 1.89,1.24 0.74,0.4 1.59,0.83 2.56,1.31 0.99,0.49 1.93,1.01 2.82,1.55 0.89,0.54 1.67,1.14 2.33,1.79 0.67,0.66 1.2,1.38 1.59,2.18 0.4,0.8 0.59,1.72 0.59,2.74 0,1.37 -0.26,2.53 -0.8,3.47 -0.53,0.95 -1.25,1.72 -2.16,2.31 -0.91,0.59 -1.95,1.02 -3.13,1.28 -1.19,0.26 -2.44,0.4 -3.75,0.4 -0.44,0 -0.98,-0.04 -1.63,-0.11 -0.63,-0.07 -1.29,-0.17 -1.97,-0.31 -0.66,-0.13 -1.29,-0.3 -1.89,-0.5 -0.6,-0.2 -1.08,-0.42 -1.45,-0.67z"/>
   <path id="7" class="fil3" d="M255.5 37.69c-2.05,1.08 -4.6,1.62 -7.65,1.62 -3.94,0 -7.09,-1.27 -9.46,-3.81 -2.37,-2.53 -3.55,-5.86 -3.55,-9.98 0,-4.42 1.33,-8 4,-10.73 2.66,-2.73 6.04,-4.1 10.13,-4.1 2.63,0 4.8,0.38 6.53,1.14l0 3.46c-1.99,-1.1 -4.17,-1.66 -6.57,-1.66 -3.17,0 -5.75,1.06 -7.73,3.18 -1.98,2.13 -2.96,4.97 -2.96,8.52 0,3.37 0.92,6.06 2.76,8.06 1.86,2 4.28,3 7.28,3 2.77,0 5.19,-0.62 7.22,-1.85l0 3.15z"/>
   <path id="8" class="fil3" d="M275.5 38.85l-14.36 0 0 -27.69 3.24 0 0 24.75 11.12 0 0 2.94z"/>
   <path id="9" class="fil3" d="M299.44 27.65c0,7.77 -3.51,11.66 -10.53,11.66 -6.71,0 -10.07,-3.74 -10.07,-11.22l0 -16.93 3.24 0 0 16.72c0,5.67 2.4,8.51 7.18,8.51 4.62,0 6.94,-2.74 6.94,-8.22l0 -17.01 3.24 0 0 16.49z"/>
   <path id="10" class="fil3" d="M306.35 38.85l0 -27.69 7.88 0c2.39,0 4.29,0.59 5.69,1.75 1.4,1.18 2.11,2.71 2.11,4.58 0,1.57 -0.43,2.94 -1.28,4.1 -0.85,1.16 -2.01,1.98 -3.51,2.47l0 0.08c1.86,0.21 3.36,0.92 4.48,2.11 1.12,1.19 1.68,2.74 1.68,4.64 0,2.37 -0.85,4.28 -2.55,5.75 -1.7,1.47 -3.84,2.21 -6.43,2.21l-8.07 0zm3.24 -24.76l0 8.95 3.33 0c1.77,0 3.17,-0.43 4.19,-1.29 1.01,-0.86 1.52,-2.06 1.52,-3.62 0,-2.69 -1.77,-4.04 -5.31,-4.04l-3.73 0zm0 11.86l0 9.96 4.41 0c1.9,0 3.38,-0.45 4.42,-1.35 1.06,-0.9 1.58,-2.14 1.58,-3.71 0,-3.27 -2.23,-4.9 -6.68,-4.9l-3.73 0z"/>
  </g>
 </g>
</svg>
